<svg xmlns="http://www.w3.org/2000/svg" xmlns:xlink="http://www.w3.org/1999/xlink" version="1.1" x="0px" y="0px" width="100px" height="100px" viewBox="0 0 100 100" enable-background="new 0 0 100 100" xml:space="preserve">
<g id="Captions">
</g>
<g id="Your_Icon">
	<path d="M31.942,37.556h4.55v32.69h-4.55V37.556z M79.976,16.205l-0.001,67.59c0,6.817-4.779,8.638-7.604,8.638   c-0.113,0-0.204-0.003-0.27-0.005l-9.188,0.005l-35.016-0.005c-0.064,0.002-0.155,0.005-0.27,0.005   c-2.824,0-7.604-1.82-7.604-8.638l0.002-67.59c0-6.818,4.779-8.639,7.604-8.639c0.114,0,0.204,0.004,0.27,0.006l35.014-0.006   l9.189,0.006c0.064-0.002,0.156-0.006,0.269-0.006C75.196,7.566,79.976,9.387,79.976,16.205z M24.575,16.205v7.915h50.851v-7.915   c0-3.379-1.66-4.089-3.055-4.089l-0.091,0.008l-0.113-0.001l-25.979-0.007l-18.445,0.007l-0.091-0.008   C26.235,12.116,24.575,12.826,24.575,16.205z M75.425,83.795l0.001-55.125H24.575l-0.002,55.125c0,3.379,1.661,4.088,3.055,4.088   l0.091-0.008l0.114,0.003l35.078,0.005l9.346-0.005l0.092,0.007C73.764,87.883,75.425,87.174,75.425,83.795z M70.297,72.679   l-3.1,1.409l-2.625-1.559l2.733-1.493l2.992,1.48l0.866-1.747l-1.769-0.876L71.031,69l-0.935-1.712l-1.678,0.917l0.22-2.039   l-1.939-0.208l-0.364,3.387l-2.771,1.514l0.005-3.052l2.776-1.936l-1.114-1.6l-1.658,1.155l0.004-2.013l-1.95-0.003l-0.004,2.006   l-1.64-1.146l-1.117,1.6l2.753,1.92l-0.005,2.98l-2.531-1.503l-0.253-3.377l-1.944,0.145l0.15,2.017l-1.731-1.028L54.309,68.7   l1.724,1.023l-1.821,0.83l0.808,1.774l3.057-1.392l2.562,1.521l-2.584,1.414l-3.034-1.501l-0.866,1.747l1.811,0.896l-1.766,0.965   l0.934,1.711l1.761-0.962l-0.214,1.99l1.939,0.209l0.359-3.339l2.632-1.438l-0.005,3.136l-2.738,1.909l1.117,1.6l1.616-1.13   l-0.003,1.866l1.95,0.003l0.002-1.912l1.683,1.173l1.114-1.6l-2.791-1.947l0.005-3.055l2.679,1.592l0.249,3.329l1.944-0.145   l-0.147-1.968l1.604,0.952l0.995-1.676l-1.643-0.978l1.865-0.849L70.297,72.679z"/>
</g>
</svg>