<svg xmlns="http://www.w3.org/2000/svg" xmlns:xlink="http://www.w3.org/1999/xlink" version="1.1" id="Layer_1" x="0px" y="0px" width="100px" height="100px" viewBox="0 0 100 100" enable-background="new 0 0 100 100" xml:space="preserve">
<path d="M92.84,60.368c0.964-1.897-0.129-3.859-2.096-7.326l-4.995-8.843c-1.294-2.325-2.376-4.239-3.897-5.574  c1.618-1.575,2.62-3.729,2.62-6.103V23.61c0-4.805-4.106-8.713-9.153-8.713H23.715c-5.043,0-9.146,3.909-9.146,8.713v8.912  c0,2.429,1.046,4.627,2.729,6.211c-1.412,1.29-2.481,3.129-3.739,5.455l-4.947,8.771c-2.246,3.581-3.483,5.555-2.376,7.555  c0.117,0.212,0.252,0.397,0.398,0.571c-0.493,0.813-0.792,1.758-0.792,2.778v15.885c0,2.952,2.38,5.354,5.306,5.354h77.705  c2.926,0,5.306-2.402,5.306-5.354V63.863C94.158,62.521,93.65,61.309,92.84,60.368z M82.067,46.327  c-21.406,1.555-30.316-2.027-37.339-5.075h30.59c0.742,0,1.459-0.094,2.15-0.253c1.802,0.428,2.608,1.753,4.571,5.28L82.067,46.327z   M44.612,32.829c0.589,2.145,0.351,2.764,0.368,2.771c-0.036,0.022-0.333,0.184-1.397,0.184c-0.837,0-1.849-0.092-3.021-0.2  l-0.651-0.059l-7.709,0.361c-5.598-0.002-7.307-0.443-7.819-0.679c0.009-0.188,0.039-0.454,0.062-0.665  c0.049-0.435,0.104-0.926,0.108-1.486l0.036-0.79c0-0.901-0.205-1.781-0.403-2.632c-0.113-0.484-0.29-1.245-0.297-1.648  c0.163-0.042,0.461-0.092,0.961-0.092c1.089,0,2.63,0.232,4.579,0.689l0.24,0.056h8.47l0.409-0.04  c2.159-0.423,3.853-0.638,5.036-0.638c0.581,0,0.931,0.053,1.126,0.099c-0.011,0.294-0.078,0.747-0.126,1.074  C44.427,30.19,44.232,31.505,44.612,32.829z M76.395,33.29c0.587,2.143,0.347,2.759,0.363,2.766c-0.035,0.022-0.332,0.185-1.4,0.185  c-0.836,0-1.847-0.093-3.017-0.2l-0.652-0.059l-7.72,0.361c-5.576-0.002-7.291-0.438-7.809-0.673  c0.01-0.187,0.039-0.448,0.062-0.657c0.047-0.414,0.105-0.926,0.109-1.489l0.04-0.795c0-0.904-0.205-1.786-0.403-2.639  c-0.112-0.484-0.289-1.245-0.297-1.649c0.163-0.042,0.462-0.092,0.962-0.092c1.091,0,2.634,0.232,4.586,0.69l0.239,0.056h8.444  l0.408-0.04c2.167-0.424,3.866-0.639,5.052-0.639c0.58,0,0.931,0.052,1.126,0.098c-0.011,0.294-0.077,0.745-0.125,1.071  C76.208,30.644,76.015,31.961,76.395,33.29z M18.82,23.61c0-2.46,2.196-4.461,4.895-4.461h51.604c2.702,0,4.901,2.001,4.901,4.461  v2.676c-0.113-0.197-0.245-0.391-0.407-0.578c-1.196-1.385-3.112-1.545-4.449-1.545c-1.438,0-3.293,0.222-5.664,0.679h-7.751  c-2.188-0.502-3.928-0.746-5.314-0.746c-2.043,0-3.469,0.544-4.357,1.663c-1.299,1.636-0.828,3.664-0.449,5.292  c0.139,0.597,0.282,1.213,0.292,1.629l-0.039,0.78c0,0.347-0.04,0.699-0.082,1.072c-0.067,0.592-0.141,1.302-0.021,2.033h-2.886  c0.384-1.579,0.031-3.37-0.385-4.886c-0.132-0.462-0.022-1.205,0.084-1.924c0.193-1.305,0.458-3.093-0.756-4.5  c-1.196-1.387-3.113-1.547-4.45-1.547c-1.436,0-3.286,0.222-5.649,0.677h-7.775c-2.185-0.501-3.923-0.746-5.309-0.746  c-2.043,0-3.468,0.544-4.356,1.664c-1.3,1.637-0.828,3.664-0.449,5.293c0.139,0.597,0.283,1.213,0.292,1.626L20.301,33  c0,0.345-0.04,0.696-0.081,1.067c-0.05,0.446-0.1,0.96-0.074,1.498c-0.815-0.8-1.325-1.865-1.325-3.042V23.61z M12.265,55.133  l5.015-8.888c1.855-3.427,2.724-4.757,4.417-5.214c0.65,0.141,1.324,0.221,2.018,0.221h9.666c1.907,0.493,5.024,1.522,9.066,3.645  c5.83,3.061,13.896,6.048,30.079,6.048c3.527,0,7.461-0.167,11.848-0.536l2.67,4.728c0.637,1.122,1.337,2.355,1.683,3.138  c-1.436,0.232-4.629,0.232-8.228,0.232H18.814c-3.658,0-6.911,0-8.431-0.223C10.789,57.491,11.546,56.281,12.265,55.133z   M89.906,79.748c0,0.608-0.473,1.103-1.054,1.103H11.147c-0.581,0-1.054-0.494-1.054-1.103V63.863c0-0.609,0.473-1.104,1.054-1.104  h7.667h61.684h8.354c0.581,0,1.054,0.495,1.054,1.104V79.748z"/>
</svg>