<svg xmlns="http://www.w3.org/2000/svg" xmlns:xlink="http://www.w3.org/1999/xlink" version="1.1" id="Layer_1" x="0px" y="0px" width="100px" height="100px" viewBox="0 0 100 100" enable-background="new 0 0 100 100" xml:space="preserve">
<g>
	<path fill="#000000" d="M90.902,25.436H8.917c-3.036,0-5.505,2.469-5.505,5.505v37.926c0,3.036,2.47,5.506,5.505,5.506h81.985   c3.034,0,5.505-2.47,5.505-5.506V30.941C96.407,27.905,93.937,25.436,90.902,25.436z M7.082,68.867V30.941   c0-1.012,0.823-1.835,1.835-1.835h62.138v41.596H8.917C7.905,70.702,7.082,69.879,7.082,68.867z M92.737,68.867   c0,1.012-0.824,1.835-1.835,1.835H74.726V29.106h16.177c1.011,0,1.835,0.823,1.835,1.835V68.867z"/>
	<rect x="77.229" y="32.345" fill="#000000" width="13.465" height="5.423"/>
	<path fill="#000000" d="M87.416,60.925H80.51c-2.291,0-4.155,1.863-4.155,4.155c0,2.29,1.864,4.154,4.155,4.154h6.906   c2.289,0,4.152-1.864,4.152-4.154C91.568,62.788,89.705,60.925,87.416,60.925z M87.416,65.563H80.51   c-0.268,0-0.484-0.217-0.484-0.483c0-0.268,0.217-0.485,0.484-0.485h6.906c0.266,0,0.482,0.218,0.482,0.485   C87.898,65.347,87.682,65.563,87.416,65.563z"/>
	<path fill="#000000" d="M62.854,32.487H16.767c-3.036,0-5.505,2.469-5.505,5.505v23.823c0,3.037,2.469,5.506,5.505,5.506h46.088   c3.035,0,5.505-2.469,5.505-5.506V37.992C68.359,34.956,65.89,32.487,62.854,32.487z M64.689,61.815   c0,1.014-0.823,1.836-1.835,1.836H16.767c-1.012,0-1.835-0.822-1.835-1.836V37.992c0-1.012,0.823-1.835,1.835-1.835h46.088   c1.012,0,1.835,0.823,1.835,1.835V61.815z"/>
	<circle fill="#000000" cx="89.146" cy="43.46" r="2.442"/>
	<circle fill="#000000" cx="83.963" cy="43.46" r="2.442"/>
	<circle fill="#000000" cx="78.777" cy="43.46" r="2.442"/>
	<circle fill="#000000" cx="89.146" cy="49.68" r="2.442"/>
	<circle fill="#000000" cx="83.963" cy="49.68" r="2.442"/>
	<circle fill="#000000" cx="78.777" cy="49.68" r="2.442"/>
	<circle fill="#000000" cx="89.146" cy="55.899" r="2.442"/>
	<circle fill="#000000" cx="83.963" cy="55.899" r="2.442"/>
	<circle fill="#000000" cx="78.777" cy="55.899" r="2.442"/>
</g>
</svg>