<svg xmlns="http://www.w3.org/2000/svg" xmlns:xlink="http://www.w3.org/1999/xlink" version="1.1" id="Layer_1" x="0px" y="0px" width="100px" height="100px" viewBox="0 0 100 100" enable-background="new 0 0 100 100" xml:space="preserve">
<g>
	<path d="M99,31.556c0-5.521-21.793-9.997-48.674-9.997c-26.886,0-48.678,4.476-48.678,9.997c0,5.388,20.772,9.78,46.771,9.987   v37.152c-10.193,0.186-18.172,1.81-18.172,3.795c0,2.099,8.988,3.804,20.08,3.804c11.085,0,20.073-1.705,20.073-3.804   c0-1.985-7.977-3.609-18.172-3.795V41.543C78.228,41.336,99,36.944,99,31.556z"/>
</g>
<ellipse fill="#000000" cx="136.75" cy="36.383" rx="33" ry="8.117"/>
<g>
	<path d="M128.803,20.611c-4.256,0-7.717-3.281-7.717-7.315s3.461-7.315,7.717-7.315s7.719,3.281,7.719,7.315   S133.059,20.611,128.803,20.611z"/>
	<path fill="#000000" d="M128.803,6.481c3.986,0,7.219,3.051,7.219,6.815c0,3.764-3.232,6.815-7.219,6.815s-7.217-3.051-7.217-6.815   C121.586,9.532,124.816,6.481,128.803,6.481 M128.803,5.481c-4.531,0-8.217,3.506-8.217,7.815s3.686,7.815,8.217,7.815   s8.219-3.506,8.219-7.815S133.334,5.481,128.803,5.481L128.803,5.481z"/>
</g>
<g>
	<path d="M124.584,68.715c-2.756,0-4.998-2.264-4.998-5.045V49.219h-0.158c-2.756,0-4.998-2.264-4.998-5.045V25.812   c0-2.781,2.242-5.043,4.998-5.043h18.75c2.756,0,5,2.263,5,5.043v18.362c0,2.781-2.244,5.045-5,5.045h-0.156V63.67   c0,2.781-2.244,5.045-5,5.045H124.584z"/>
	<path fill="#000000" d="M138.178,21.269c2.484,0,4.5,2.034,4.5,4.543v18.362c0,2.508-2.016,4.545-4.5,4.545h-0.656V63.67   c0,2.512-2.016,4.545-4.5,4.545h-8.438c-2.484,0-4.498-2.033-4.498-4.545V48.719h-0.658c-2.484,0-4.498-2.037-4.498-4.545V25.812   c0-2.509,2.014-4.543,4.498-4.543H138.178 M138.178,20.269h-18.75c-3.031,0-5.498,2.487-5.498,5.543v18.362   c0,2.941,2.283,5.355,5.156,5.533V63.67c0,3.057,2.467,5.545,5.498,5.545h8.438c3.031,0,5.5-2.488,5.5-5.545V49.707   c2.873-0.18,5.156-2.592,5.156-5.533V25.812C143.678,22.755,141.209,20.269,138.178,20.269L138.178,20.269z"/>
</g>
</svg>