<svg xmlns="http://www.w3.org/2000/svg" xmlns:xlink="http://www.w3.org/1999/xlink" version="1.1" x="0px" y="0px" width="100px" height="100px" viewBox="0 0 100 100" enable-background="new 0 0 100 100" xml:space="preserve">
<g id="Captions">
</g>
<g id="Your_Icon">
	<path d="M96.125,47.124h-6.712C88.048,26.395,70.849,10,49.773,10C27.806,10,10,27.804,10,49.772   c0,21.967,17.806,39.779,39.773,39.779c1.606,0,2.993-0.872,2.993-2.886c0-0.638,0-4.126,0-5.317c0-1.19-1.092-2.99-2.993-2.99   c-15.762,0-28.58-12.824-28.58-28.586c0-15.758,12.818-28.582,28.58-28.582c14.869,0,27.108,11.411,28.451,25.933H70.8   c-1.814,0-2.241,1.038-0.937,2.302l11.514,11.176c1.301,1.265,3.42,1.245,4.696-0.044L97.098,49.47   C98.388,48.18,97.948,47.124,96.125,47.124z"/>
	<path d="M38.005,58.243c0,1.817,1.482,3.303,3.303,3.303H58.24c1.816,0,3.303-1.485,3.303-3.303V41.309   c0-1.817-1.486-3.303-3.303-3.303H41.309c-1.821,0-3.303,1.486-3.303,3.303V58.243z"/>
</g>
</svg>