<svg xmlns="http://www.w3.org/2000/svg" xmlns:xlink="http://www.w3.org/1999/xlink" version="1.1" id="Layer_1" x="0px" y="0px" width="100px" height="100px" viewBox="0 0 100 100" enable-background="new 0 0 100 100" xml:space="preserve">
<g id="Captions">
	<rect x="-192" width="185" height="99"/>
	<rect y="-36" width="100" height="30"/>
	<text transform="matrix(1 0 0 1 66 -19.5)" fill="#000000" font-family="'Helvetica'" font-size="2.4">http://thenounproject.com</text>
	<text transform="matrix(1 0 0 1 7.166 -24.5)" fill="#000000" font-family="'Helvetica-Bold'" font-size="6.1578">The Noun Project</text>
	<text transform="matrix(1 0 0 1 8.2861 -19.7002)" fill="#000000" font-family="'Helvetica-Bold'" font-size="4">Icon Template</text>
	<text transform="matrix(1 0 0 1 -178.5 10.5)" fill="#000000" font-family="'Helvetica-Bold'" font-size="6.1578">Reminders</text>
	<line fill="#000000" stroke="#FFFFFF" stroke-miterlimit="10" x1="8" y1="-14.5" x2="18" y2="-14.5"/>
	<line fill="#000000" stroke="#FFFFFF" stroke-miterlimit="10" x1="-179" y1="16.5" x2="-162" y2="16.5"/>
	<g>
		<g>
			<g>
				<rect x="-170.802" y="31.318" fill="#000000" width="8.721" height="8.642"/>
				<path fill="#000000" d="M-164.455,42.312h4.747v-4.703h-4.747V42.312z M-159.266,42.749h-5.63V37.17h5.63V42.749      L-159.266,42.749z M-166.221,44.062h8.279v-8.203h-8.279V44.062L-166.221,44.062z M-157.5,44.5h-9.163v-9.079h9.163V44.5      L-157.5,44.5z"/>
				<polygon fill="#000000" points="-166.149,44.133 -166.292,43.991 -158.013,35.787 -157.871,35.929     "/>
			</g>
		</g>
	</g>
	<rect x="-179" y="58" fill="none" width="35" height="32.5"/>
	<text transform="matrix(1 0 0 1 -179 60.1572)" fill="#000000" font-family="'Helvetica-Bold'" font-size="3">Strokes</text>
	<text transform="matrix(1 0 0 1 -179 65.1572)" fill="#000000" font-family="'Helvetica'" font-size="2.4">Try to keep strokes at 4px</text>
	<text transform="matrix(1 0 0 1 -179 70.1572)" fill="#000000" font-family="'Helvetica'" font-size="2.4">Minimum stroke weight is 2px</text>
	<text transform="matrix(1 0 0 1 -179 74.6572)" fill="#000000" font-family="'Helvetica'" font-size="2.4">For thicker strokes use even </text>
	<text transform="matrix(1 0 0 1 -179 77.6572)" fill="#000000" font-family="'Helvetica'" font-size="2.4">numbers: 6px, 8px etc.</text>
	<text transform="matrix(1 0 0 1 -179 82.1572)" fill="#000000" font-family="'Helvetica-Bold'" font-size="2.4">Remember to expand strokes </text>
	<text transform="matrix(1 0 0 1 -179 85.1572)" fill="#000000" font-family="'Helvetica-Bold'" font-size="2.4">before saving as an SVG </text>
	<rect x="-136.5" y="58" fill="none" width="35" height="32.5"/>
	<text transform="matrix(1 0 0 1 -136.5 60.1572)" fill="#000000" font-family="'Helvetica-Bold'" font-size="3">Size</text>
	<text transform="matrix(1 0 0 1 -136.5 65.1572)" fill="#000000" font-family="'Helvetica'" font-size="2.4">Cannot be wider or taller than </text>
	<text transform="matrix(1 0 0 1 -136.5 68.6572)" fill="#000000" font-family="'Helvetica'" font-size="2.4">100px (artboard size)</text>
	<text transform="matrix(1 0 0 1 -136.5 73.6572)" fill="#000000" font-family="'Helvetica'" font-size="2.4">Scale your icon to fill as much of </text>
	<text transform="matrix(1 0 0 1 -136.5 76.6572)" fill="#000000" font-family="'Helvetica'" font-size="2.4">the artboard as possible</text>
	<rect x="-94" y="58" fill="none" width="35" height="32.5"/>
	<text transform="matrix(1 0 0 1 -94 60.1572)" fill="#000000" font-family="'Helvetica-Bold'" font-size="3">Ungroup</text>
	<text transform="matrix(1 0 0 1 -94 65.1572)" fill="#000000" font-family="'Helvetica'" font-size="2.4">If your design has more than one </text>
	<text transform="matrix(1 0 0 1 -94 68.1572)" fill="#000000" font-family="'Helvetica'" font-size="2.4">shape, make sure to ungroup</text>
	<rect x="-50" y="58" fill="none" width="35" height="32.5"/>
	<text transform="matrix(1 0 0 1 -50 60.1572)" fill="#000000" font-family="'Helvetica-Bold'" font-size="3">Save as</text>
	<text transform="matrix(1 0 0 1 -50 65.1572)" fill="#000000" font-family="'Helvetica'" font-size="2.4">Save as .SVG and make sure </text>
	<text transform="matrix(1 0 0 1 -50 68.1572)" fill="#000000" font-family="'Helvetica'" font-size="2.4">&#8220;Use Artboards&#8221; is checked</text>
	<text transform="matrix(1.0074 0 0 1 -125.542 30.5938)" fill="#000000" font-family="'Helvetica'" font-size="2.5731">100px</text>
	<text transform="matrix(1.0074 0 0 1 -41 39)" fill="#000000" font-family="'Helvetica-Bold'" font-size="5.1462">.SVG</text>
	<rect x="-126.514" y="34.815" fill="#000000" width="10.261" height="10.185"/>
	<rect x="-126.477" y="31.766" fill="#000000" width="0.522" height="2.337"/>
	<rect x="-116.812" y="31.766" fill="#000000" width="0.523" height="2.337"/>
	<rect x="-127" y="32.337" fill="#000000" width="11.233" height="0.572"/>
	<g>
		<rect x="-83.805" y="33.844" fill="#000000" width="10.305" height="10.156"/>
		<rect x="-76.809" y="28.707" fill="#000000" width="3.308" height="3.261"/>
	</g>
	<rect x="-178.5" y="22.5" fill="#000000" stroke="#FFFFFF" stroke-miterlimit="10" width="30" height="30"/>
	<rect x="-136.5" y="22.5" fill="#000000" stroke="#FFFFFF" stroke-miterlimit="10" width="30" height="30"/>
	<rect x="-93.5" y="22.5" fill="#000000" stroke="#FFFFFF" stroke-miterlimit="10" width="30" height="30"/>
	<rect x="-49.5" y="22.5" fill="#000000" stroke="#FFFFFF" stroke-miterlimit="10" width="30" height="30"/>
</g>
<path fill="#000000" d="M79.91,14.062v-2.73c0-3.101-2.506-5.604-5.599-5.604H56.89c-3.093,0-5.599,2.503-5.599,5.604v6.216  c0,0.173,0.01,0.346,0.024,0.513L79.91,14.062z"/>
<path fill="#000000" d="M73.963,3.038c0-1.807-1.466-3.274-3.273-3.274H60.509c-1.807,0-3.269,1.467-3.269,3.274V3.24h16.723V3.038z  "/>
<path fill="#000000" d="M83.665,17.731c-1.165-1.4-16.357,1.2-37.477,5.999c-10.993,2.498-18.873,0.395-18.873,0.395l0.005,0.02  L20.968,23.3c-0.583-0.079-1.116,0.331-1.192,0.911c-0.079,0.581,0.328,1.114,0.911,1.192l6.855,0.884l0.195,1.879l-6.769-0.795  c-0.583-0.077-1.116,0.328-1.192,0.911c-0.079,0.583,0.328,1.116,0.911,1.195l7.275,0.839l0.205,1.972l-7.199-0.847  c-0.583-0.079-1.116,0.331-1.192,0.914c-0.079,0.578,0.328,1.111,0.911,1.192l7.703,0.889l0.202,1.903l-7.008-0.825  c-0.583-0.079-1.121,0.331-1.197,0.914c-0.077,0.578,0.331,1.111,0.913,1.19l7.515,0.869l0.203,1.945l-7.191-0.849  c-0.583-0.074-1.116,0.331-1.195,0.914c-0.074,0.583,0.331,1.116,0.914,1.195l7.697,0.889l0.202,1.931l-7.25-0.854  c-0.58-0.079-1.118,0.331-1.192,0.914c-0.079,0.58,0.329,1.113,0.909,1.19l7.756,0.898l0.198,1.916l-7.182-0.85  c-0.583-0.076-1.116,0.331-1.197,0.914c-0.074,0.58,0.331,1.116,0.914,1.195l7.692,0.889l0.2,1.915l-7.117-0.839  c-0.585-0.077-1.119,0.33-1.195,0.913c-0.079,0.583,0.328,1.116,0.911,1.192l7.626,0.881l0.205,1.966l-0.007-0.021l-7.297-0.861  c-0.583-0.076-1.116,0.334-1.195,0.914c-0.074,0.58,0.333,1.113,0.914,1.192l7.806,0.903l0.198,1.9l-7.11-0.837  c-0.583-0.076-1.116,0.329-1.195,0.914c-0.074,0.58,0.331,1.113,0.913,1.192l7.619,0.881l0.202,1.928l-7.174-0.844  c-0.58-0.074-1.113,0.333-1.195,0.913c-0.074,0.58,0.333,1.116,0.914,1.195l7.677,0.884l0.2,1.931l-7.246-0.85  c-0.583-0.079-1.116,0.326-1.195,0.913c-0.077,0.578,0.331,1.113,0.914,1.19l7.751,0.898l0.203,1.921l-7.238-0.853  c-0.583-0.076-1.113,0.331-1.192,0.911c-0.077,0.583,0.328,1.116,0.911,1.195l7.742,0.894l0.202,1.923l-7.25-0.852  c-0.58-0.079-1.113,0.331-1.195,0.913c-0.077,0.578,0.329,1.116,0.911,1.192l7.756,0.896l0.203,1.926l-7.263-0.854  c-0.583-0.079-1.116,0.331-1.195,0.913c-0.076,0.58,0.331,1.113,0.911,1.19l7.769,0.898l0.197,1.913l-7.169-0.847  c-0.583-0.076-1.116,0.331-1.195,0.913c-0.079,0.583,0.331,1.116,0.914,1.195l7.677,0.884l0.203,1.926l-7.189-0.845  c-0.58-0.079-1.116,0.331-1.195,0.913c-0.076,0.581,0.331,1.114,0.914,1.195l7.692,0.884l0.203,1.933l-7.253-0.854  c-0.583-0.077-1.116,0.328-1.195,0.91c-0.079,0.583,0.331,1.116,0.913,1.195l7.759,0.898l0.209,2.015l-7.159-0.845  c-0.583-0.078-1.116,0.331-1.195,0.914c-0.077,0.58,0.331,1.115,0.911,1.192l7.665,0.871v0.015c0,0,0.04,0,0.099-0.005l0.005,0.003  v-0.003c2.382-0.138,47.544-2.794,49.349-5.046C86.501,92.31,85.98,20.516,83.665,17.731z"/>
</svg>