<svg xmlns="http://www.w3.org/2000/svg" xmlns:xlink="http://www.w3.org/1999/xlink" version="1.1" x="0px" y="0px" width="100px" height="100px" viewBox="0 0 100 100" enable-background="new 0 0 100 100" xml:space="preserve">
<g id="Captions" display="none">
</g>
<g id="Your_Icon">
	<path d="M96.664,80.675L75.342,59.353c3.191-5.829,4.901-12.393,4.901-19.218c0-10.728-4.172-20.807-11.756-28.383   C60.914,4.172,50.832,0,40.115,0c-10.72,0-20.799,4.172-28.383,11.752c-15.644,15.654-15.644,41.119,0,56.755   c7.584,7.58,17.663,11.752,28.376,11.752c6.832,0,13.392-1.71,19.229-4.894l21.326,21.318c2.204,2.211,5.101,3.316,8.004,3.316   c2.89,0,5.786-1.105,7.997-3.316C101.094,92.265,101.094,85.098,96.664,80.675 M19.736,60.503   c-11.232-11.232-11.232-29.511,0-40.747c5.443-5.439,12.681-8.436,20.379-8.436c7.694,0,14.925,2.996,20.372,8.436   c5.442,5.447,8.435,12.681,8.435,20.379c0,7.691-2.992,14.925-8.435,20.368c-5.447,5.439-12.678,8.435-20.379,8.435   C32.417,68.938,25.18,65.942,19.736,60.503"/>
	<path d="M53.625,33.608c2.079,0,3.773,1.699,3.773,3.773v4.245c0,2.075-1.694,3.774-3.773,3.774H27.21   c-2.071,0-3.773-1.699-3.773-3.774v-4.245c0-2.074,1.702-3.773,3.773-3.773H53.625z"/>
</g>
</svg>