<svg xmlns="http://www.w3.org/2000/svg" xmlns:xlink="http://www.w3.org/1999/xlink" version="1.1" x="0px" y="0px" width="100px" height="100px" viewBox="0 0 100 100" enable-background="new 0 0 100 100" xml:space="preserve">
<g id="Captions" display="none">
</g>
<g id="Your_Icon">
	<path d="M96.665,80.675L75.342,59.354c3.19-5.831,4.901-12.395,4.901-19.218c0-10.729-4.171-20.807-11.756-28.384   C60.914,4.171,50.832,0,40.115,0c-10.72,0-20.798,4.171-28.383,11.752c-15.644,15.655-15.644,41.119,0,56.755   c7.585,7.58,17.663,11.752,28.377,11.752c6.83,0,13.39-1.71,19.228-4.894l21.326,21.318c2.205,2.211,5.101,3.316,8.005,3.316   c2.888,0,5.786-1.105,7.997-3.316C101.094,92.265,101.094,85.097,96.665,80.675 M19.737,60.502   c-11.232-11.231-11.232-29.51,0-40.746c5.442-5.438,12.68-8.436,20.378-8.436c7.695,0,14.925,2.997,20.371,8.436   c5.442,5.447,8.437,12.681,8.437,20.38c0,7.689-2.994,14.924-8.437,20.366c-5.446,5.439-12.676,8.437-20.377,8.437   C32.417,68.938,25.18,65.941,19.737,60.502"/>
	<path d="M42.245,23.116c2.078,0,3.775,1.699,3.775,3.774v7.315h7.312c2.072,0,3.775,1.694,3.775,3.773v4.245   c0,2.071-1.703,3.773-3.775,3.773h-7.312v7.307c0,2.075-1.697,3.774-3.775,3.774H38c-2.07,0-3.772-1.699-3.772-3.774v-7.307h-7.312   c-2.072,0-3.775-1.702-3.775-3.773v-4.245c0-2.079,1.703-3.773,3.775-3.773h7.312v-7.315c0-2.075,1.702-3.774,3.772-3.774H42.245z"/>
</g>
</svg>